<svg version="1.2" xmlns="http://www.w3.org/2000/svg" viewBox="0 0 965 1035" width="600" height="644">
	<title>Scooter electric1-svg</title>
	<style>
		.s0 { fill: #fafdfc } 
	</style>
	<g id="Layer_x0020_1">
		<g id="_995903776">
			<path fill-rule="evenodd" class="s0" d="m856 818c59.7 0 108.1 48.4 108.1 108.1 0 59.8-48.4 108.2-108.1 108.2-42.6 0-79.4-24.6-97-60.3h52.4c11.7 10.9 27.3 17.6 44.6 17.6 36.1 0 65.4-29.3 65.4-65.4 0-36.2-29.3-65.4-65.4-65.4-15 0-28.8 5-39.9 13.5h-55c18.3-33.5 53.9-56.3 94.9-56.3z"/>
			<path class="s0" d="m183.8 848c20.6 19.7 33.4 47.4 33.4 78.1 0 59.8-48.4 108.2-108.1 108.2-59.7 0-108.1-48.4-108.1-108.2 0-52.6 37.6-96.4 87.4-106.1l-15.1 51.4c-17.8 11.7-29.6 31.8-29.6 54.7 0 36.2 29.3 65.4 65.4 65.4 36.1 0 65.4-29.2 65.4-65.4 0-9.5-2-18.6-5.7-26.8 0 0 15-51.3 15-51.3z"/>
			<path class="s0" d="m282.7 16.3h115.4l-159 543c-5.6-4.6-12.2-8.3-19.7-10.4-7.3-2.1-14.7-2.6-21.8-1.7l142.7-487.5h-59c3.2-7.1 4.9-15.1 4.9-23.4 0-7-1.2-13.8-3.5-20z"/>
			<path class="s0" d="m173.2 592.1c5-17.2 22.9-27.1 40.1-22.1 17.3 5 27.1 23 22.2 40.1l-25.9 88.3 145 175.4c9.6 11.7 22.6 17.8 37.7 17.8h287.5c19.3 0 35.8-10.5 44.1-27.9 7.2-15.1 16.9-28.9 28.7-40.8 28.6-28.5 66-42.8 103.4-42.8 37.4 0 74.8 14.3 103.3 42.8 5.5 5.4 5.5 14.2 0 19.7-5.4 5.4-14.2 5.4-19.6 0-23.1-23.2-53.4-34.7-83.7-34.7-30.3 0-60.6 11.5-83.8 34.7-9.3 9.3-16.7 19.7-22.2 30.7q-4.5 8.9-7.3 18.3h113.3c18 0 32.5 14.5 32.5 32.5 0 18-14.6 32.6-32.5 32.6h-502v-0.1c-9.4 0-18.6-4-25.1-11.8l-141.3-171.1-7.3 24.9c11.8 6.6 22.5 14.8 32 24.3 26.5 26.5 42.8 63 42.8 103.4 0 7.6-6.2 13.9-13.8 13.9-7.7 0-13.9-6.3-13.9-13.9 0-32.7-13.3-62.3-34.7-83.8-6.2-6.2-13-11.7-20.5-16.4l-31.9 109.1c-5 17.2-23 27.1-40.2 22.1-17.2-5-27.1-23-22.1-40.2l32-109.2q-0.5 0-1 0c-13.3 0-25.8 2.1-37.5 5.9-12.2 4.1-23.5 10.1-33.6 17.7-6.1 4.5-14.7 3.3-19.3-2.8-4.6-6.1-3.4-14.8 2.7-19.4 12.4-9.3 26.4-16.7 41.5-21.7 14.6-4.8 30.1-7.5 46.2-7.5q4.5 0 9 0.3l55.1-188.3z"/>
			<path class="s0" d="m228 72.5c-20 0-36.3-16.2-36.3-36.2 0-20.1 16.3-36.3 36.3-36.3 20.1 0 36.3 16.2 36.3 36.3 0 20-16.2 36.2-36.3 36.2z"/>
		</g>
	</g>
</svg>